<svg xmlns="http://www.w3.org/2000/svg" viewBox="0 0 24 24" aria-hidden="true">
  <path fill="#fff" d="M21.6 7.2s-.2-1.5-.82-2.16c-.78-.86-1.66-.86-2.06-.91C15.84 3.92 12 3.92 12 3.92h-.01s-3.84 0-6.72.21c-.4.05-1.28.05-2.06.91C2.59 5.7 2.4 7.2 2.4 7.2s-.2 1.76-.2 3.52v1.65c0 1.76.2 3.52.2 3.52s.2 1.5.81 2.16c.78.86 1.81.83 2.27.92 1.65.16 6.52.21 6.52.21s3.85-.01 6.73-.22c.4-.05 1.28-.05 2.06-.91.62-.66.82-2.16.82-2.16s.2-1.76.2-3.52v-1.65c0-1.76-.21-3.52-.21-3.52zM9.98 14.4V8.28l5.88 3.07-5.88 3.05z"/>
</svg>
